<svg xmlns="http://www.w3.org/2000/svg" version="1.1" id="Layer_1" data-name="Layer 1" viewBox="0 0 140 140.00001" sodipodi:docname="beer-mug-icon.svg" width="140" height="140" inkscape:version="1.4.3 (0d15f75042, 2025-12-25)" xml:space="preserve" xmlns:inkscape="http://www.inkscape.org/namespaces/inkscape" xmlns:sodipodi="http://sodipodi.sourceforge.net/DTD/sodipodi-0.dtd" xmlns:svg="http://www.w3.org/2000/svg" xmlns:rdf="http://www.w3.org/1999/02/22-rdf-syntax-ns#" xmlns:cc="http://creativecommons.org/ns#" xmlns:dc="http://purl.org/dc/elements/1.1/"><sodipodi:namedview id="namedview1" pagecolor="#f9eed2" bordercolor="#000000" borderopacity="0.25" inkscape:showpageshadow="2" inkscape:pageopacity="0.0" inkscape:pagecheckerboard="0" inkscape:deskcolor="#d1d1d1" inkscape:zoom="1.8618364" inkscape:cx="100.16992" inkscape:cy="36.791631" inkscape:window-width="1920" inkscape:window-height="1024" inkscape:window-x="0" inkscape:window-y="0" inkscape:window-maximized="1" inkscape:current-layer="Layer_1"></sodipodi:namedview><defs id="defs1"><style id="style1">.cls-1{fill-rule:evenodd;}</style></defs><title id="title1">beer-mug</title><metadata id="metadata1"><rdf:rdf><cc:work rdf:about=""><dc:title>beer-mug</dc:title></cc:work></rdf:rdf></metadata><g id="g16" transform="translate(8.5000025,8.540445)"><path class="cls-1" d="m 35.389177,4.4491138 a 17.42,17.42 0 0 1 7.57,-3.78000001 19.64,19.64 0 0 1 8.15,-0.1 17.41,17.41 0 0 1 6.17,2.52000001 17.38,17.38 0 0 1 5.5,-2.49000001 18.75,18.75 0 0 1 7.56,-0.38 20.52,20.52 0 0 1 7.16,2.55000001 21.48,21.48 0 0 1 7.87,8.0000002 14.91,14.91 0 0 1 9,2.92 16,16 0 0 1 4.34,4.76 14.94,14.94 0 0 1 2.060003,6.45 c 0.41,5 -1.650003,10.45 -7.680003,14.84 v 10.7 l 5,-0.44 c 10.119993,-0.89 18.409993,8.29 18.409993,18.41 v 21.64 c 0,9.93 -8.16,18.909996 -17.999993,17.999996 l -5.36,-0.46 v 5.41 a 9.93,9.93 0 0 1 -2.92,7 v 0 a 9.92,9.92 0 0 1 -7,2.92 h -58.48 a 10,10 0 0 1 -9.93,-9.92 c 0,-7.69 0.1,-61.999996 0.13,-73.689996 -6.9499999,-5.74 -9.1199999,-12.31 -8.2599999,-18.23 a 17.13,17.13 0 0 1 4.3799999,-9.08 18.88,18.88 0 0 1 8.38,-5.2600002 19.15,19.15 0 0 1 13.26,0.73 15.69,15.69 0 0 1 2.69,-3 z m 57.73,57.7300002 v 34.12 h 7.000003 a 4.22,4.22 0 0 0 4.19,-4.19 v -25.33 a 4.62,4.62 0 0 0 -4.610003,-4.6 z m -25.56,5.11 a 4.1,4.1 0 0 1 8.14,0 v 29.35 a 4.1,4.1 0 0 1 -8.14,0 z m -35.32,0 a 3.85,3.85 0 0 1 4.06,-3.58 3.85,3.85 0 0 1 4.07,3.58 v 29.35 a 3.85,3.85 0 0 1 -4.07,3.579996 3.85,3.85 0 0 1 -4.06,-3.579996 z m 17.66,-2.76 a 4.1,4.1 0 0 1 8.13,0 v 34.86 a 4.1,4.1 0 0 1 -8.13,0 z m 36.09,-22.61 -1.68,0.1 c -1.38,0 -2.79,0 -4.23,0 v 0.36 a 13.75,13.75 0 0 1 -10.41,13.62 15.62,15.62 0 0 1 -7.83,0 14.39,14.39 0 0 1 -8.34,-5.82 17.47,17.47 0 0 1 -2.29,-5.66 c -0.36,-1.26 -0.71,-2.52 -3.77,-2.52 h -25.51 v 70.999996 a 2.83,2.83 0 0 0 2.81,2.81 h 58.46 a 2.79,2.79 0 0 0 2,-0.82 v 0 a 2.79,2.79 0 0 0 0.82,-2 V 41.989114 Z m -65.43,-6.05 c -19.8699999,-13.87 2.07,-33.6500002 15.66,-18.39 -1.09,-12.7100002 16.97,-14.7200002 20.94,-5.48 5.85,-10.0700002 21.34,-6.7200002 24.59,5.88 8.81,-4.95 20.400003,9 6.68,17.65 a 49.47,49.47 0 0 1 -8.68,0.43 c -4.54,-0.08 -5.68,2.24 -5.73,6.38 -0.11,9.11 -11.52,10.38 -15.52,4.43 -2.67,-4 -0.35,-10.9 -11.09,-10.9 z" id="path1"></path><path style="fill:#ffcc00;fill-opacity:1;stroke-width:0.75" d="m 22.975,114.775 -0.85,-0.85 v -35.9 -35.9 l 13.3125,3.88e-4 c 12.173295,3.56e-4 13.387377,0.03779 14.1875,0.4375 0.799562,0.399426 0.950725,0.663425 1.753327,3.062112 1.191228,3.56014 2.033363,4.988211 4.0802,6.919092 4.565665,4.307019 11.217623,5.26172 17.122585,2.457467 4.268775,-2.027232 7.530668,-7.029372 7.54092,-11.564059 L 80.125,42.125 H 83 85.875 v 35.9 35.9 l -0.85,0.85 -0.85,0.85 H 54 23.825 Z m 33.365502,-12.4725 c 1.889925,-1.25069 1.802168,-0.20151 1.726783,-20.64465 -0.06632,-17.985753 -0.07465,-18.256281 -0.582733,-18.936688 -0.818442,-1.09603 -1.71617,-1.641419 -2.926347,-1.777824 -1.492038,-0.168174 -2.658513,0.249466 -3.701228,1.325173 L 50,63.152604 49.93285,81.71993 l -0.06715,18.56733 0.569167,0.85637 c 1.289443,1.94009 3.93936,2.46009 5.905635,1.15887 z M 38.273866,99.89903 c 0.594435,-0.269963 1.24978,-0.830528 1.5625,-1.336518 0.536586,-0.868215 0.538634,-0.9314 0.538634,-16.61755 V 66.198941 l -0.567483,-0.84947 c -1.61192,-2.412897 -5.713109,-2.285482 -7.12198,0.221265 L 32.125,66.568077 v 15.262185 c 0,10.203683 0.08838,15.495448 0.266653,15.965963 0.850499,2.244715 3.491148,3.188705 5.882213,2.102805 z m 35.361129,-0.09971 c 0.744082,-0.39348 1.27084,-0.920238 1.66432,-1.66432 L 75.875,97.046357 75.86951,82.02318 C 75.864352,67.912945 75.835737,66.937727 75.398642,65.975267 74.680567,64.394111 73.588272,63.75 71.625,63.75 c -1.963273,0 -3.055568,0.644111 -3.773643,2.225267 -0.437095,0.96246 -0.46571,1.937678 -0.470867,16.047913 l -0.0055,15.023177 0.575685,1.088638 c 0.674822,1.27611 2.255915,2.240005 3.674315,2.240005 0.506747,0 1.411245,-0.25906 2.009995,-0.575685 z" id="path13"></path><path style="fill:#ffffff;fill-opacity:1;stroke-width:0.75" d="m 63.976772,50.129882 c -2.323397,-0.489102 -4.79825,-2.209317 -5.707127,-3.966895 -0.20994,-0.405977 -0.71064,-1.87301 -1.112668,-3.260072 -1.2243,-4.224038 -2.369622,-5.640773 -5.296595,-6.551748 C 50.428775,35.905602 49.382095,35.875 35.573721,35.875 H 20.816988 L 19.611292,34.989937 C 18.94816,34.503152 17.627719,33.271932 16.676979,32.25389 11.794705,27.025998 11.434731,20.826966 15.743378,16.176539 c 2.621803,-2.829776 6.085132,-4.218671 9.958978,-3.993838 3.385087,0.196466 6.235197,1.479313 9.168843,4.126937 l 1.451118,1.309639 0.09535,-1.934639 c 0.166402,-3.376125 1.94412,-6.1834423 4.920065,-7.7696041 5.218573,-2.7814697 11.936528,-1.5362542 14.884135,2.7588681 l 0.977178,1.423901 0.673592,-0.923901 C 60.248845,7.9146902 63.306612,6.3225298 67.25,6.291171 c 4.01385,-0.031919 7.587855,1.5338964 10.465935,4.585253 1.496152,1.586229 3.037067,4.150571 3.65543,6.08325 0.26205,0.819039 0.385565,0.934626 0.84284,0.788751 2.622465,-0.836591 3.255935,-0.919782 4.764912,-0.625762 2.97035,0.578765 5.518445,2.605015 6.850868,5.447821 0.56338,1.202004 0.669485,1.767716 0.666687,3.554516 -0.0028,1.817024 -0.105075,2.333251 -0.705377,3.561915 -0.805805,1.649267 -2.747095,3.875647 -4.327455,4.962962 -1.295418,0.891273 -3.477108,1.214175 -8.33884,1.234198 -5.629853,0.02319 -6.784783,1.021072 -7.23941,6.255015 -0.34559,3.978637 -1.62532,6.021815 -4.624183,7.382837 -1.440897,0.653948 -3.785095,0.923628 -5.284635,0.607955 z" id="path14"></path><path style="fill:#ffffff;fill-opacity:1;stroke-width:0.75" d="M 62.958112,49.677402 C 61.57774,49.184172 60.177807,48.226117 59.061105,47.010457 58.596387,46.50456 58.038302,45.220457 57.34613,43.06447 55.855992,38.422962 54.832035,37.151305 51.878502,36.2742 50.713802,35.928322 48.56625,35.875 35.800619,35.875 H 21.066988 l -1.20946,-0.887825 C 18.111615,33.705557 15.486015,30.779756 14.50073,29.017901 12.889593,26.13692 12.506487,23.35358 13.34864,20.647739 c 1.179771,-3.790613 4.445599,-6.874144 8.40136,-7.932401 1.704188,-0.455909 4.989905,-0.426848 6.642125,0.05875 2.074165,0.609609 4.440057,1.951531 6.18185,3.506313 0.865686,0.772741 1.628208,1.35075 1.694493,1.284465 0.06629,-0.06629 0.225399,-1.040109 0.353588,-2.164054 0.639996,-5.6114233 5.217879,-9.0875838 11.473251,-8.7120777 3.494348,0.2097633 6.198653,1.5855994 7.972478,4.0560577 0.495692,0.690365 0.937467,1.303204 0.981725,1.361865 0.04426,0.05866 0.87215,-0.752525 1.83976,-1.802635 1.266222,-1.37418 2.193907,-2.1222384 3.310012,-2.6690955 6.94612,-3.4033904 15.698283,0.7060609 18.79951,8.8270395 0.254553,0.666581 0.606075,1.266936 0.78116,1.334122 0.175085,0.06719 0.971223,-0.06843 1.769193,-0.301363 3.779507,-1.10328 8.050335,1.028463 10.071652,5.027171 0.47406,0.937813 0.642788,1.719465 0.713823,3.306851 0.08555,1.911807 0.03161,2.203487 -0.671658,3.632034 -1.050592,2.134055 -3.22134,4.472537 -4.925855,5.306477 -1.245165,0.609203 -1.771472,0.692818 -5.679717,0.902343 -5.617628,0.30117 -6.169623,0.376047 -7.14504,0.969235 -1.119688,0.680922 -1.702605,2.126657 -2.153998,5.342282 -0.610332,4.34787 -1.633042,6.014495 -4.472757,7.288883 -2.01176,0.902825 -4.49373,1.06263 -6.327483,0.407401 z" id="path15"></path></g></svg>